<?xml version="1.0" encoding="UTF-8" standalone="no"?>
<!DOCTYPE svg PUBLIC "-//W3C//DTD SVG 1.1//EN"
 "http://www.w3.org/Graphics/SVG/1.1/DTD/svg11.dtd">
<!-- Generated by graphviz version 2.38.0 (20140413.2041)
 -->
<!-- Title: g Pages: 1 -->
<svg width="645pt" height="217pt"
 viewBox="0.00 0.00 645.20 216.67" xmlns="http://www.w3.org/2000/svg" xmlns:xlink="http://www.w3.org/1999/xlink">
<g id="graph0" class="graph" transform="scale(1 1) rotate(0) translate(314.669 122.669)">
<title>g</title>
<polygon fill="white" stroke="none" points="-314.669,94 -314.669,-122.669 330.529,-122.669 330.529,94 -314.669,94"/>
<!-- CLIENT -->
<g id="node1" class="node"><title>CLIENT</title>
<ellipse fill="none" stroke="black" cx="-264" cy="-72" rx="46.8387" ry="46.8387"/>
<text text-anchor="middle" x="-264" y="-83.3" font-family="Times,serif" font-size="14.00">CLIENT</text>
<text text-anchor="middle" x="-264" y="-68.3" font-family="Times,serif" font-size="14.00">кеш</text>
<text text-anchor="middle" x="-264" y="-53.3" font-family="Times,serif" font-size="14.00">hosts</text>
</g>
<!-- S1 -->
<g id="node2" class="node"><title>S1</title>
<polygon fill="none" stroke="black" points="-5.34417,-86.2605 -48,-118.148 -90.6558,-86.2605 -90.616,-34.6654 -5.38398,-34.6654 -5.34417,-86.2605"/>
<text text-anchor="middle" x="-48" y="-83.3" font-family="Times,serif" font-size="14.00">S1</text>
<text text-anchor="middle" x="-48" y="-68.3" font-family="Times,serif" font-size="14.00">кеш</text>
<text text-anchor="middle" x="-48" y="-53.3" font-family="Times,serif" font-size="14.00">zones</text>
</g>
<!-- CLIENT&#45;&gt;S1 -->
<g id="edge1" class="edge"><title>CLIENT&#45;&gt;S1</title>
<path fill="none" stroke="black" d="M-217.131,-72C-182.914,-72 -136.489,-72 -100.934,-72"/>
<polygon fill="black" stroke="black" points="-100.745,-75.5001 -90.7452,-72 -100.745,-68.5001 -100.745,-75.5001"/>
<text text-anchor="middle" x="-159.033" y="-60.8" font-family="Times,serif" font-size="14.00">запрос ns&#45;сервера</text>
</g>
<!-- S2 -->
<g id="node3" class="node"><title>S2</title>
<polygon fill="none" stroke="black" stroke-dasharray="5,2" points="326.558,-86.2605 240,-118.148 153.442,-86.2605 153.522,-34.6654 326.478,-34.6654 326.558,-86.2605"/>
<text text-anchor="middle" x="240" y="-83.3" font-family="Times,serif" font-size="14.00">S2 (forwarder)</text>
<text text-anchor="middle" x="240" y="-68.3" font-family="Times,serif" font-size="14.00">кеш</text>
<text text-anchor="middle" x="240" y="-53.3" font-family="Times,serif" font-size="14.00">zones</text>
</g>
<!-- S1&#45;&gt;S2 -->
<g id="edge2" class="edge"><title>S1&#45;&gt;S2</title>
<path fill="none" stroke="black" stroke-dasharray="5,2" d="M-5.19447,-72C33.8,-72 92.8131,-72 143.173,-72"/>
<polygon fill="black" stroke="black" points="143.449,-75.5001 153.449,-72 143.449,-68.5001 143.449,-75.5001"/>
<text text-anchor="middle" x="68.9892" y="-60.8" font-family="Times,serif" font-size="14.00">пересылка запроса</text>
</g>
<!-- NS1 -->
<g id="node4" class="node"><title>NS1</title>
<polygon fill="none" stroke="black" points="-87.1233,66.4377 -120,54 -152.877,66.4377 -152.846,86.5623 -87.154,86.5623 -87.1233,66.4377"/>
<text text-anchor="middle" x="-120" y="75.7" font-family="Times,serif" font-size="14.00">NS1</text>
</g>
<!-- S2&#45;&gt;NS1 -->
<g id="edge3" class="edge"><title>S2&#45;&gt;NS1</title>
<path fill="none" stroke="black" d="M153.313,-37.3252C75.9469,-6.37876 -33.2082,37.2833 -87.1676,58.867"/>
<polygon fill="black" stroke="black" points="-85.9959,62.1679 -96.5805,62.6322 -88.5956,55.6686 -85.9959,62.1679"/>
<text text-anchor="middle" x="14.5727" y="6.97093" font-family="Times,serif" font-size="14.00">поиск</text>
</g>
<!-- NS2 -->
<g id="node5" class="node"><title>NS2</title>
<polygon fill="none" stroke="black" points="56.8767,66.4377 24,54 -8.87669,66.4377 -8.84601,86.5623 56.846,86.5623 56.8767,66.4377"/>
<text text-anchor="middle" x="24" y="75.7" font-family="Times,serif" font-size="14.00">NS2</text>
</g>
<!-- S2&#45;&gt;NS2 -->
<g id="edge4" class="edge"><title>S2&#45;&gt;NS2</title>
<path fill="none" stroke="black" d="M183.812,-34.5416C140.623,-5.74872 82.9461,32.7026 50.0036,54.6643"/>
<polygon fill="black" stroke="black" points="51.6626,57.7647 41.4006,60.3996 47.7797,51.9404 51.6626,57.7647"/>
<text text-anchor="middle" x="98.408" y="6.26133" font-family="Times,serif" font-size="14.00">поиск</text>
</g>
<!-- NS3 -->
<g id="node6" class="node"><title>NS3</title>
<polygon fill="none" stroke="black" points="200.877,66.4377 168,54 135.123,66.4377 135.154,86.5623 200.846,86.5623 200.877,66.4377"/>
<text text-anchor="middle" x="168" y="75.7" font-family="Times,serif" font-size="14.00">NS3</text>
</g>
<!-- S2&#45;&gt;NS3 -->
<g id="edge5" class="edge"><title>S2&#45;&gt;NS3</title>
<path fill="none" stroke="black" d="M221.271,-34.5416C208.35,-8.69923 191.538,24.9235 180.289,47.4215"/>
<polygon fill="black" stroke="black" points="183.294,49.2382 175.691,56.6172 177.033,46.1077 183.294,49.2382"/>
<text text-anchor="middle" x="182.28" y="2.63992" font-family="Times,serif" font-size="14.00">поиск</text>
</g>
</g>
</svg>
