<?xml version="1.0" encoding="UTF-8" standalone="no"?>
<!DOCTYPE svg PUBLIC "-//W3C//DTD SVG 1.1//EN"
 "http://www.w3.org/Graphics/SVG/1.1/DTD/svg11.dtd">
<!-- Generated by graphviz version 2.38.0 (20140413.2041)
 -->
<!-- Title: g Pages: 1 -->
<svg width="572pt" height="141pt"
 viewBox="0.00 0.00 571.94 140.90" xmlns="http://www.w3.org/2000/svg" xmlns:xlink="http://www.w3.org/1999/xlink">
<g id="graph0" class="graph" transform="scale(1 1) rotate(0) translate(333.4 72.4)">
<title>g</title>
<polygon fill="white" stroke="none" points="-333.4,68.4962 -333.4,-72.4 238.538,-72.4 238.538,68.4962 -333.4,68.4962"/>
<!-- CLIENT -->
<g id="node1" class="node"><title>CLIENT</title>
<ellipse fill="none" stroke="black" cx="-86.4" cy="21.6" rx="42.7926" ry="42.7926"/>
<text text-anchor="middle" x="-86.4" y="25.3" font-family="Times,serif" font-size="14.00">CLIENT</text>
</g>
<!-- S1 -->
<g id="node2" class="node"><title>S1</title>
<polygon fill="none" stroke="black" points="-275.4,16.0377 -302.4,3.6 -329.4,16.0377 -329.375,36.1623 -275.425,36.1623 -275.4,16.0377"/>
<text text-anchor="middle" x="-302.4" y="25.3" font-family="Times,serif" font-size="14.00">S1</text>
</g>
<!-- CLIENT&#45;&gt;S1 -->
<g id="edge1" class="edge"><title>CLIENT&#45;&gt;S1</title>
<path fill="none" stroke="blue" d="M-129.075,27.1037C-168.745,28.8459 -227.252,28.7615 -265.098,26.8506"/>
<polygon fill="blue" stroke="blue" points="-265.412,30.3384 -275.192,26.2632 -265.006,23.3502 -265.412,30.3384"/>
<text text-anchor="middle" x="-214.586" y="38.1772" font-family="Times,serif" font-size="14.00">RD=1</text>
</g>
<!-- NS1 -->
<g id="node3" class="node"><title>NS1</title>
<polygon fill="none" stroke="black" points="90.4767,-55.9623 57.6,-68.4 24.7233,-55.9623 24.754,-35.8377 90.446,-35.8377 90.4767,-55.9623"/>
<text text-anchor="middle" x="57.6" y="-46.7" font-family="Times,serif" font-size="14.00">NS1</text>
</g>
<!-- CLIENT&#45;&gt;NS1 -->
<g id="edge3" class="edge"><title>CLIENT&#45;&gt;NS1</title>
<path fill="none" stroke="black" d="M-38.6099,-2.29506C-20.0281,-11.5859 0.988452,-22.0942 18.6283,-30.9142"/>
<polygon fill="black" stroke="black" points="-37.3011,0.963631 -47.8106,2.30532 -40.4316,-5.29737 -37.3011,0.963631"/>
<polygon fill="black" stroke="black" points="17.5344,-34.2803 28.0439,-35.622 20.6649,-28.0193 17.5344,-34.2803"/>
</g>
<!-- NS2 -->
<g id="node4" class="node"><title>NS2</title>
<polygon fill="none" stroke="black" points="162.477,-19.9623 129.6,-32.4 96.7233,-19.9623 96.754,0.162306 162.446,0.162306 162.477,-19.9623"/>
<text text-anchor="middle" x="129.6" y="-10.7" font-family="Times,serif" font-size="14.00">NS2</text>
</g>
<!-- CLIENT&#45;&gt;NS2 -->
<g id="edge4" class="edge"><title>CLIENT&#45;&gt;NS2</title>
<path fill="none" stroke="black" d="M-33.9832,12.8639C2.84607,6.72565 51.5301,-1.38835 86.1879,-7.16465"/>
<polygon fill="black" stroke="black" points="-33.5437,16.3388 -43.9831,14.5305 -34.6946,9.43406 -33.5437,16.3388"/>
<polygon fill="black" stroke="black" points="86.0254,-10.6858 96.4648,-8.87747 87.1763,-3.78102 86.0254,-10.6858"/>
</g>
<!-- NS3 -->
<g id="node5" class="node"><title>NS3</title>
<polygon fill="none" stroke="black" points="234.477,16.0377 201.6,3.6 168.723,16.0377 168.754,36.1623 234.446,36.1623 234.477,16.0377"/>
<text text-anchor="middle" x="201.6" y="25.3" font-family="Times,serif" font-size="14.00">NS3</text>
</g>
<!-- CLIENT&#45;&gt;NS3 -->
<g id="edge5" class="edge"><title>CLIENT&#45;&gt;NS3</title>
<path fill="none" stroke="black" d="M-33.0405,21.6C22.1709,21.6 107.339,21.6 158.455,21.6"/>
<polygon fill="black" stroke="black" points="-33.2835,25.0999 -43.2835,21.6 -33.2835,18.0999 -33.2835,25.0999"/>
<polygon fill="black" stroke="black" points="158.513,18.0999 168.513,21.6 158.513,25.0999 158.513,18.0999"/>
</g>
<!-- S1&#45;&gt;CLIENT -->
<g id="edge2" class="edge"><title>S1&#45;&gt;CLIENT</title>
<path fill="none" stroke="red" d="M-275.043,16.9268C-240.993,14.6534 -182.093,14.2464 -139.147,15.706"/>
<polygon fill="red" stroke="red" points="-139.004,12.2089 -129.147,16.0931 -139.275,19.2036 -139.004,12.2089"/>
<text text-anchor="middle" x="-224.595" y="12.5164" font-family="Times,serif" font-size="14.00">RA=0</text>
</g>
</g>
</svg>
