<?xml version="1.0" encoding="UTF-8" standalone="no"?>
<!DOCTYPE svg PUBLIC "-//W3C//DTD SVG 1.1//EN"
 "http://www.w3.org/Graphics/SVG/1.1/DTD/svg11.dtd">
<!-- Generated by graphviz version 2.38.0 (20140413.2041)
 -->
<!-- Title: g Pages: 1 -->
<svg width="588pt" height="141pt"
 viewBox="0.00 0.00 587.83 140.90" xmlns="http://www.w3.org/2000/svg" xmlns:xlink="http://www.w3.org/1999/xlink">
<g id="graph0" class="graph" transform="scale(1 1) rotate(0) translate(349.296 72.4)">
<title>g</title>
<polygon fill="white" stroke="none" points="-349.296,68.4962 -349.296,-72.4 238.538,-72.4 238.538,68.4962 -349.296,68.4962"/>
<!-- CLIENT -->
<g id="node1" class="node"><title>CLIENT</title>
<ellipse fill="none" stroke="black" cx="-302.4" cy="21.6" rx="42.7926" ry="42.7926"/>
<text text-anchor="middle" x="-302.4" y="25.3" font-family="Times,serif" font-size="14.00">CLIENT</text>
</g>
<!-- S1 -->
<g id="node2" class="node"><title>S1</title>
<polygon fill="none" stroke="black" points="-59.4,16.0377 -86.4,3.6 -113.4,16.0377 -113.375,36.1623 -59.4252,36.1623 -59.4,16.0377"/>
<text text-anchor="middle" x="-86.4" y="25.3" font-family="Times,serif" font-size="14.00">S1</text>
</g>
<!-- CLIENT&#45;&gt;S1 -->
<g id="edge1" class="edge"><title>CLIENT&#45;&gt;S1</title>
<path fill="none" stroke="blue" d="M-259.725,16.0963C-220.055,14.3541 -161.548,14.4385 -123.702,16.3494"/>
<polygon fill="blue" stroke="blue" points="-123.388,12.8616 -113.608,16.9368 -123.794,19.8498 -123.388,12.8616"/>
<text text-anchor="middle" x="-209.214" y="12.4228" font-family="Times,serif" font-size="14.00">RD=1</text>
</g>
<!-- S1&#45;&gt;CLIENT -->
<g id="edge2" class="edge"><title>S1&#45;&gt;CLIENT</title>
<path fill="none" stroke="green" d="M-113.757,26.2732C-147.807,28.5466 -206.707,28.9536 -249.653,27.494"/>
<polygon fill="green" stroke="green" points="-249.796,30.9911 -259.653,27.1069 -249.525,23.9964 -249.796,30.9911"/>
<text text-anchor="middle" x="-199.205" y="38.0836" font-family="Times,serif" font-size="14.00">RA=1</text>
</g>
<!-- NS1 -->
<g id="node3" class="node"><title>NS1</title>
<polygon fill="none" stroke="black" points="90.4767,-55.9623 57.6,-68.4 24.7233,-55.9623 24.754,-35.8377 90.446,-35.8377 90.4767,-55.9623"/>
<text text-anchor="middle" x="57.6" y="-46.7" font-family="Times,serif" font-size="14.00">NS1</text>
</g>
<!-- S1&#45;&gt;NS1 -->
<g id="edge3" class="edge"><title>S1&#45;&gt;NS1</title>
<path fill="none" stroke="black" d="M-58.6227,7.71135C-36.4913,-3.35433 -5.26188,-18.9691 19.2523,-31.2262"/>
<polygon fill="black" stroke="black" points="-57.065,10.8456 -67.5745,12.1873 -60.1955,4.58457 -57.065,10.8456"/>
<polygon fill="black" stroke="black" points="17.7763,-34.4012 28.2859,-35.7429 20.9069,-28.1403 17.7763,-34.4012"/>
</g>
<!-- NS2 -->
<g id="node4" class="node"><title>NS2</title>
<polygon fill="none" stroke="black" points="162.477,-19.9623 129.6,-32.4 96.7233,-19.9623 96.754,0.162306 162.446,0.162306 162.477,-19.9623"/>
<text text-anchor="middle" x="129.6" y="-10.7" font-family="Times,serif" font-size="14.00">NS2</text>
</g>
<!-- S1&#45;&gt;NS2 -->
<g id="edge4" class="edge"><title>S1&#45;&gt;NS2</title>
<path fill="none" stroke="black" d="M-49.1725,15.3954C-11.449,9.10817 46.8563,-0.609381 86.5458,-7.22431"/>
<polygon fill="black" stroke="black" points="-48.6041,18.8489 -59.0435,17.0406 -49.7549,11.9441 -48.6041,18.8489"/>
<polygon fill="black" stroke="black" points="86.0222,-10.6852 96.4616,-8.87693 87.1731,-3.78048 86.0222,-10.6852"/>
</g>
<!-- NS3 -->
<g id="node5" class="node"><title>NS3</title>
<polygon fill="none" stroke="black" points="234.477,16.0377 201.6,3.6 168.723,16.0377 168.754,36.1623 234.446,36.1623 234.477,16.0377"/>
<text text-anchor="middle" x="201.6" y="25.3" font-family="Times,serif" font-size="14.00">NS3</text>
</g>
<!-- S1&#45;&gt;NS3 -->
<g id="edge5" class="edge"><title>S1&#45;&gt;NS3</title>
<path fill="none" stroke="black" d="M-48.9854,21.6C4.44312,21.6 102.347,21.6 158.662,21.6"/>
<polygon fill="black" stroke="black" points="-49.3056,25.0999 -59.3057,21.6 -49.3057,18.0999 -49.3056,25.0999"/>
<polygon fill="black" stroke="black" points="158.674,18.0999 168.673,21.6 158.673,25.0999 158.674,18.0999"/>
</g>
</g>
</svg>
